<svg width="195px" height="45px" viewBox="0 0 195 45" version="1.1" xmlns="http://www.w3.org/2000/svg" xmlns:xlink="http://www.w3.org/1999/xlink">
    <!-- Generator: Sketch 49 (51002) - http://www.bohemiancoding.com/sketch -->
    <desc>Created with Sketch.</desc>
    <defs></defs>
    <g id="Page-1" stroke="none" stroke-width="1" fill="none" fill-rule="evenodd">
        <g id="Artboard" transform="translate(-83.000000, -89.000000)" fill="#FFFFFF">
            <path d="M83,134 L83,114 L87,114 L87,130 L91,130 L91,114 L95,114 L95,130 L99,130 L99,114 L103,114 L103,134 L83,134 Z M107,134 L107,114 L119,114 L119,118 L111,118 L111,122 L119,122 L119,126 L111,126 L111,130 L119,130 L119,134 L107,134 Z M131,130 L131,126 L127,126 L127,130 L131,130 Z M131,122 L131,118 L127,118 L127,122 L131,122 Z M123,134 L123,114 L135,114 L135,122 L134.96875,122 L133,124 L135,126 L135,134 L123,134 Z M161,107 L161,98 L152,98 L152,107 L161,107 Z M143,134 L143,89 L170,89 L170,116 L152,116 L152,134 L143,134 Z M197,125 L197,98 L188,98 L188,125 L197,125 Z M179,134 L179,89 L206,89 L206,134 L179,134 Z M215,134 L215,89 L242,89 L242,134 L233,134 L233,98 L224,98 L224,134 L215,134 Z M251,134 L251,89 L278,89 L278,98 L260,98 L260,125 L269,125 L269,116 L264.5,116 L264.5,107 L278,107 L278,134 L251,134 Z" id="WEB-PONG"></path>
        </g>
    </g>
</svg>